<svg width="102" height="20" viewBox="0 0 102 20" fill="none" xmlns="http://www.w3.org/2000/svg">
<g filter="url(#filter0_d_632_174)">
<path d="M4 11.437C4.39043 10.8007 4.65729 10.1033 4.97739 9.43224C6.26174 6.73274 7.51586 4.01878 8.84227 1.339C9.00265 1.01495 9.15843 0.688277 9.30238 0.357002C9.3898 0.149297 9.52717 0.06122 9.75722 0.0658211C11.0606 0.0743659 12.364 0.0697648 13.6681 0.0756805C13.9889 0.0756805 14.0171 0.125635 13.8817 0.42536C13.279 1.76295 12.6703 3.09857 12.0676 4.43484C12.0242 4.53081 11.95 4.62217 11.9789 4.76349C12.3982 4.70762 12.8163 4.6432 13.2363 4.59785C14.4567 4.47466 15.6839 4.43184 16.9099 4.46968C17.2241 4.47625 17.3772 4.3586 17.5014 4.08319C18.0785 2.83039 18.6806 1.58877 19.2617 0.336626C19.3543 0.139438 19.474 0.0592482 19.6883 0.0605628C20.9917 0.067793 22.2951 0.0651638 23.5985 0.0704221C23.9574 0.0704221 23.9883 0.117747 23.8371 0.453624C23.1476 1.98117 22.4568 3.50806 21.7581 5.03035C20.8057 7.09951 19.8394 9.16209 18.889 11.2319C18.7772 11.4751 18.6359 11.575 18.3632 11.573C17.0269 11.5605 15.6899 11.5665 14.3537 11.5625C13.9692 11.5625 13.9488 11.5211 14.1131 11.1681C14.7875 9.71904 15.461 8.26905 16.1336 6.81818C16.1685 6.7426 16.2335 6.67029 16.1993 6.56053C15.0964 6.56644 13.9987 6.63611 12.9129 6.87274C11.407 7.20139 10.3994 8.13211 9.71187 9.46839C9.40513 10.063 9.12622 10.6699 8.87514 11.2891C8.80152 11.4698 8.70293 11.5724 8.48931 11.5711C7.0873 11.5625 5.6853 11.5645 4.28264 11.5586C4.18679 11.5495 4.0921 11.5307 4 11.5027V11.437Z" fill="black"/>
<path d="M35.0896 0C35.1994 0.11174 35.3426 0.114369 35.484 0.125543C36.7788 0.224794 38.0474 0.447616 39.2424 0.980023C39.7846 1.22256 40.2894 1.53478 40.693 1.97911C41.2333 2.57067 41.4515 3.28317 41.464 4.08573C41.4883 5.69347 41.1071 7.16909 40.1034 8.44686C39.2489 9.53731 38.1118 10.2459 36.8314 10.7303C35.4564 11.2509 34.0221 11.4474 32.559 11.5282C30.7763 11.6373 28.987 11.5171 27.2349 11.1707C26.1175 10.9446 25.0593 10.5686 24.168 9.82586C23.4062 9.19026 23.0506 8.33315 23.002 7.37482C22.8955 5.31289 23.7592 3.64929 25.2749 2.31893C26.7906 0.988568 28.6271 0.380572 30.599 0.116998C31.0886 0.053898 31.5849 0.131458 32.066 0H35.0896ZM31.019 10.259C33.0263 10.1972 34.6038 9.38745 35.6088 7.59698C36.2038 6.5302 36.5368 5.33732 36.5803 4.11662C36.6408 2.7087 35.8843 1.70699 34.5822 1.41055C33.2801 1.11411 32.022 1.28698 30.8744 1.96793C29.0386 3.05707 28.1315 4.76734 27.7969 6.81744C27.6267 7.86187 27.8489 8.80903 28.6862 9.52482C29.3521 10.0947 30.1599 10.2689 31.019 10.259Z" fill="black"/>
<path d="M51.3528 6.62064C50.8349 7.34366 50.3248 8.05617 49.82 8.76933C49.2285 9.61001 48.6317 10.45 48.0453 11.2973C47.9053 11.501 47.7377 11.5766 47.4952 11.5753C46.1044 11.5681 44.7135 11.5753 43.3227 11.5714C42.9244 11.5714 42.8172 11.4741 42.7916 11.0731C42.7745 10.8004 42.7837 10.5256 42.7837 10.2522C42.7837 8.00687 42.7785 5.76222 42.7837 3.51691C42.7837 2.50073 42.8205 1.48456 42.8324 0.468387C42.8324 0.244908 42.8981 0.117393 43.1479 0.120022C44.1338 0.132511 45.1132 0.0128834 46.1004 0.108848C46.4343 0.141055 46.5231 0.247537 46.5224 0.56238C46.5139 2.81821 46.5224 5.07469 46.5224 7.33249C46.5224 7.58949 46.4613 7.89973 46.8004 7.98978C47.11 8.07457 47.2395 7.79982 47.3828 7.60132C49.0554 5.28283 50.7253 2.96303 52.3927 0.641912C52.6017 0.352704 52.8193 0.0444335 53.2524 0.0720397C53.612 0.0943877 53.7644 0.22256 53.8328 0.61562C54.1198 2.25403 54.4047 3.89354 54.6873 5.53414C54.803 6.20326 54.9127 6.87304 55.0317 7.54085C55.0672 7.7433 55.0843 7.98124 55.3393 8.03382C55.5944 8.0864 55.7238 7.89513 55.8343 7.72226C56.6401 6.4572 57.44 5.18906 58.234 3.91786C58.9737 2.74087 59.7105 1.56168 60.4445 0.38031C60.5622 0.189695 60.7074 0.117393 60.9296 0.117393C62.2107 0.124623 63.493 0.117393 64.7734 0.123309C65.1271 0.123309 65.1494 0.162746 64.9535 0.472988C63.7266 2.41594 62.4955 4.3578 61.2602 6.29857C60.34 7.75053 59.406 9.19394 58.5127 10.6623C58.1276 11.2946 57.6582 11.6095 56.8872 11.5825C55.4655 11.5339 54.0405 11.5622 52.6148 11.5747C52.3145 11.5747 52.1955 11.4774 52.1501 11.1757C51.9332 9.73621 51.6946 8.30002 51.4613 6.86318C51.4521 6.79351 51.4679 6.70938 51.3528 6.62064Z" fill="black"/>
<path d="M92.5056 6.71333C93.1629 7.1662 93.809 7.63354 94.4275 8.13637C95.2945 8.84296 96.1365 9.5765 96.8083 10.4809C97.0203 10.7603 97.2 11.0629 97.344 11.3827C97.4241 11.5635 97.3965 11.691 97.1717 11.6897C95.9019 11.6818 94.632 11.7311 93.3594 11.6687C93.0965 11.6555 92.9223 11.5418 92.76 11.3361C91.7741 10.0839 90.7033 8.91592 89.3598 8.02989C88.6161 7.54524 87.8259 7.13612 87.0008 6.80864C86.755 6.70873 86.5105 6.63183 86.2357 6.69098C86.1051 6.71217 85.9719 6.71217 85.8413 6.69098C85.1006 6.6029 85.184 6.53915 84.8455 7.31278C84.2625 8.63525 83.6986 9.96693 83.1418 11.3006C83.038 11.5503 82.9052 11.6509 82.6311 11.647C81.3494 11.6299 80.0677 11.6332 78.7866 11.6259C78.4205 11.6259 78.3982 11.5898 78.5513 11.2493C79.7568 8.57369 80.9634 5.89851 82.171 3.22377C82.5713 2.33511 82.9729 1.44908 83.3541 0.548586C83.4817 0.244917 83.6453 0.120031 83.9891 0.12266C85.8295 0.135149 87.6699 0.165384 89.5103 0.102284C90.6619 0.0621895 91.8109 0.123975 92.9559 0.131862C94.164 0.141065 95.2958 0.47234 96.2791 1.20193C96.9469 1.69819 97.3347 2.35745 97.342 3.21325C97.3486 3.93627 97.3637 4.65929 97.087 5.35142C96.6926 6.33341 96.2791 6.61999 95.2209 6.62854C94.3237 6.63643 93.4271 6.62854 92.5299 6.62854L92.5056 6.71333ZM89.7792 2.23454V2.23783C88.9247 2.23783 88.0702 2.24177 87.2157 2.23783C87.0061 2.23783 86.8667 2.2937 86.7826 2.50074C86.5591 3.05944 86.3258 3.6142 86.0826 4.16501C85.9741 4.41149 86.0576 4.46605 86.2975 4.46868C87.1724 4.47722 88.0466 4.47788 88.9214 4.51403C90.0901 4.56135 91.2627 4.52849 92.4333 4.53375C92.6965 4.53267 92.9572 4.48205 93.2017 4.38454C93.29 4.35375 93.3711 4.30529 93.44 4.24212C93.5089 4.17894 93.5643 4.10239 93.6026 4.01712C93.9313 3.28358 93.5632 2.51783 92.7889 2.31276C92.5878 2.25952 92.3805 2.233 92.1724 2.23388C91.377 2.23454 90.5784 2.23454 89.7792 2.23454Z" fill="black"/>
<path d="M72.3502 11.5682C70.9699 11.5682 69.5896 11.607 68.2093 11.5583C66.4247 11.4926 64.6408 11.5379 62.8563 11.5228C62.5934 11.5228 62.3305 11.5577 62.0675 11.5655C61.6245 11.5787 61.5936 11.5301 61.7599 11.1317C62.4461 9.4839 63.1179 7.83016 63.8232 6.19087C64.3674 4.92427 64.8854 3.64386 65.5394 2.42656C66.3984 0.82868 67.7985 0.0839675 69.5488 0.0813383C72.5481 0.0767373 75.548 0.129321 78.5478 0.151669C79.3116 0.156927 80.0787 0.179275 80.8444 0.194393C80.9391 0.194393 81.0666 0.151011 81.1205 0.241718C81.1816 0.343598 81.06 0.418529 81.0028 0.488202C80.6144 0.961453 80.2141 1.42682 79.8243 1.89875C79.7655 1.97015 79.691 2.02703 79.6067 2.06499C79.5223 2.10295 79.4303 2.12096 79.3379 2.11763C77.4449 2.17876 75.5519 2.0381 73.6602 2.11763C72.8524 2.15247 72.042 2.13275 71.2348 2.21951C70.5078 2.29773 69.961 2.64018 69.5587 3.2416C69.2813 3.65569 69.0947 4.10857 68.933 4.5759C68.8561 4.79675 68.9415 4.81779 69.1301 4.77966C70.9469 4.41552 72.7827 4.46351 74.6212 4.51675C75.9128 4.55224 77.2056 4.52923 78.4992 4.53909C78.6431 4.53909 78.8522 4.45759 78.9166 4.62126C78.9698 4.75271 78.7739 4.84474 78.6819 4.9499C78.2928 5.38043 77.8932 5.79912 77.5113 6.23688C77.4378 6.33075 77.343 6.40572 77.2348 6.45557C77.1265 6.50541 77.0079 6.52869 76.8888 6.52346C75.3337 6.51163 73.7779 6.50308 72.2221 6.51623C70.9338 6.52675 69.6954 6.77915 68.5662 7.42658C67.9364 7.79123 67.4215 8.32524 67.0801 8.96793C66.9729 9.16512 66.9847 9.25714 67.2391 9.2808C68.1685 9.36559 69.0993 9.32024 70.0293 9.33207C70.9929 9.34456 71.9578 9.30841 72.9214 9.34522C74.4536 9.40437 75.985 9.30644 77.5165 9.34522C77.8334 9.3531 78.1495 9.37019 78.4663 9.38005C78.5321 9.38005 78.609 9.3531 78.6497 9.41423C78.7069 9.49968 78.6228 9.55752 78.5768 9.61142C78.1679 10.0827 77.7295 10.5316 77.3529 11.0266C77.0117 11.4748 76.6029 11.6024 76.056 11.5866C74.8197 11.5504 73.5813 11.5754 72.3437 11.5754L72.3502 11.5682Z" fill="black"/>
</g>
<defs>
<filter id="filter0_d_632_174" x="0" y="0" width="101.385" height="19.7012" filterUnits="userSpaceOnUse" color-interpolation-filters="sRGB">
<feFlood flood-opacity="0" result="BackgroundImageFix"/>
<feColorMatrix in="SourceAlpha" type="matrix" values="0 0 0 0 0 0 0 0 0 0 0 0 0 0 0 0 0 0 127 0" result="hardAlpha"/>
<feOffset dy="4"/>
<feGaussianBlur stdDeviation="2"/>
<feComposite in2="hardAlpha" operator="out"/>
<feColorMatrix type="matrix" values="0 0 0 0 0 0 0 0 0 0 0 0 0 0 0 0 0 0 0.25 0"/>
<feBlend mode="normal" in2="BackgroundImageFix" result="effect1_dropShadow_632_174"/>
<feBlend mode="normal" in="SourceGraphic" in2="effect1_dropShadow_632_174" result="shape"/>
</filter>
</defs>
</svg>
